<?xml version="1.0" standalone="no"?>
<!DOCTYPE svg PUBLIC "-//W3C//DTD SVG 20010904//EN"
 "http://www.w3.org/TR/2001/REC-SVG-20010904/DTD/svg10.dtd">
<svg version="1.0" xmlns="http://www.w3.org/2000/svg"
 width="63.000000pt" height="70.000000pt" viewBox="0 0 63.000000 70.000000"
 preserveAspectRatio="xMidYMid meet">

<g transform="translate(0.000000,70.000000) scale(0.100000,-0.100000)"
fill="#FFF" stroke="none">
<path d="M250 684 c-80 -35 -109 -84 -117 -200 l-6 -84 -34 0 c-25 0 -43 -8
-65 -30 l-29 -30 3 -145 c4 -206 -21 -190 313 -190 334 0 309 -16 313 190 l3
145 -29 30 c-22 22 -40 30 -65 30 l-34 0 -6 84 c-8 117 -37 166 -119 201 -46
19 -83 19 -128 -1z m140 -36 c61 -42 75 -71 79 -164 l3 -84 -157 0 -157 0 3
84 c3 66 9 91 25 113 34 46 82 73 129 73 27 0 54 -8 75 -22z m194 -294 c13
-12 16 -41 16 -154 0 -132 -1 -140 -22 -154 -33 -24 -493 -24 -526 0 -21 14
-22 22 -22 154 0 113 3 142 16 154 23 24 515 24 538 0z"/>
</g>
</svg>
